<?xml version="1.0" encoding="UTF-8"?>
<svg width="27px" height="26px" viewBox="0 0 27 26" version="1.1" xmlns="http://www.w3.org/2000/svg" xmlns:xlink="http://www.w3.org/1999/xlink">
    <title>Group Copy</title>
    <g id="Page-1" stroke="none" stroke-width="1" fill="none" fill-rule="evenodd">
        <g id="Projet-detail-Copy-2" transform="translate(-1280, -2391)" fill="#1B8284" fill-rule="nonzero">
            <g id="Group-Copy" transform="translate(1293.5, 2404) rotate(180) translate(-1293.5, -2404)translate(1280, 2391)">
                <path d="M13.108092,25.9993384 C12.7440558,26.0106083 12.4272125,25.8777968 12.1549031,25.6080306 L0.368523412,13.9317245 C0.23729753,13.8017242 0.1416953,13.6623229 0.0868747033,13.5102588 C0.028356782,13.3479388 2.84326992e-13,13.1739126 2.84326992e-13,12.988516 C2.84326992e-13,12.8031194 0.028356782,12.6290932 0.0868747033,12.4667732 C0.1416953,12.3147091 0.23729753,12.1753078 0.368523412,12.0453074 L12.1549031,0.369001402 C12.4064467,0.119806993 12.7222124,0 13.0981916,0 C13.4815188,0 13.8136012,0.124428911 14.0933064,0.37615765 C14.3620916,0.645615334 14.4992942,0.964223161 14.4992942,1.33432416 C14.4992942,1.70770685 14.3596477,2.02867913 14.0861254,2.29964692 L4.665717,11.6320776 L25.6212201,11.6320776 C26.013031,11.6320776 26.3433939,11.7599152 26.6091539,12.0231932 C26.8712794,12.2828707 27,12.6053243 27,12.988516 C27,13.3717077 26.8712794,13.6941613 26.6091539,13.9538387 C26.3433939,14.2171168 26.013031,14.3449544 25.6212201,14.3449544 L4.665717,14.3449544 L14.1307708,23.7216135 C14.3989426,23.9872808 14.5330487,24.2958221 14.5218249,24.6516292 C14.5103728,25.0146749 14.3640774,25.3302707 14.0919111,25.6022204 C13.8103713,25.8551498 13.4825198,25.9877468 13.108092,25.9993384 L13.108092,25.9993384 Z" id="Path"></path>
            </g>
        </g>
    </g>
</svg>