<svg xmlns="http://www.w3.org/2000/svg" width="70" height="39"><g fill="#272727" fill-rule="evenodd"><path fill-rule="nonzero" d="m22.813 37.513-3.91-11.794H8.3L4.177 37.513h4.016v1.038H0v-1.038h2.517L16.172 0h4.392l13.494 37.513h2.464v1.038H19.01v-1.038h3.802Zm-8.997-27.302L8.782 24.517h9.693l-4.659-14.306Z"/><path fill-rule="nonzero" d="M31.449 0h17.013v1.046h-3.163v23.291H56.15V1.046h-3.217V0H70v1.046h-3.217v36.458H70v1.047H52.933v-1.047h3.217V25.769H45.299v11.735h3.163v1.047H31.449v-1.047h3.217V1.046h-3.217z"/><path d="M8.116 24.348h48.696v2.029H8.116z"/></g></svg>